<?xml version="1.0" encoding="UTF-8" standalone="no"?>
<svg
   xmlns:dc="http://purl.org/dc/elements/1.1/"
   xmlns:cc="http://creativecommons.org/ns#"
   xmlns:rdf="http://www.w3.org/1999/02/22-rdf-syntax-ns#"
   xmlns:svg="http://www.w3.org/2000/svg"
   xmlns="http://www.w3.org/2000/svg"
   xmlns:sodipodi="http://sodipodi.sourceforge.net/DTD/sodipodi-0.dtd"
   xmlns:inkscape="http://www.inkscape.org/namespaces/inkscape"
   version="1.1"
   id="Layer_1"
   x="0px"
   y="0px"
   viewBox="0 0 512.001 512.001"
   style="enable-background:new 0 0 512.001 512.001;"
   xml:space="preserve"
   sodipodi:docname="root.svg"
   inkscape:version="1.0.2-2 (e86c870879, 2021-01-15)"><metadata
   id="metadata118"><rdf:RDF><cc:Work
       rdf:about=""><dc:format>image/svg+xml</dc:format><dc:type
         rdf:resource="http://purl.org/dc/dcmitype/StillImage" /></cc:Work></rdf:RDF></metadata><defs
   id="defs116" /><sodipodi:namedview
   pagecolor="#ffffff"
   bordercolor="#666666"
   borderopacity="1"
   objecttolerance="10"
   gridtolerance="10"
   guidetolerance="10"
   inkscape:pageopacity="0"
   inkscape:pageshadow="2"
   inkscape:window-width="1920"
   inkscape:window-height="1017"
   id="namedview114"
   showgrid="false"
   inkscape:zoom="1.5965114"
   inkscape:cx="390.57462"
   inkscape:cy="255.85815"
   inkscape:window-x="1358"
   inkscape:window-y="-8"
   inkscape:window-maximized="1"
   inkscape:current-layer="Layer_1" />
<g
   id="g69"
   style="fill:#445d6e;fill-opacity:1">
	<g
   id="g67"
   style="fill:#445d6e;fill-opacity:1">
		<path
   d="m 256.001,172.523 c -22.352,0 -43.334,8.669 -59.073,24.402 -28.522,28.527 -32.058,72.724 -10.621,105.142 L 302.068,186.306 c -13.532,-8.959 -29.415,-13.783 -46.067,-13.783 z"
   id="path65"
   style="fill:#445d6e;fill-opacity:1" />
	</g>
</g>
<g
   id="g75"
   style="fill:#445d6e;fill-opacity:1">
	<g
   id="g73"
   style="fill:#445d6e;fill-opacity:1">
		<path
   d="M 325.695,209.929 209.934,325.69 c 13.531,8.959 29.414,13.783 46.067,13.783 22.352,0 43.334,-8.669 59.073,-24.402 28.522,-28.527 32.06,-72.723 10.621,-105.142 z"
   id="path71"
   style="fill:#445d6e;fill-opacity:1" />
	</g>
</g>
<g
   id="g81"
   style="opacity:0.991">
	<g
   id="g79"
   style="fill:#445d6e;fill-opacity:1">
		<path
   d="m 437.108,74.898 c -99.869,-99.858 -262.345,-99.858 -362.214,0 -99.858,99.858 -99.858,262.339 0,362.203 49.934,49.929 115.521,74.896 181.107,74.896 65.586,0 131.173,-24.967 181.107,-74.896 99.857,-99.858 99.857,-262.34 0,-362.203 z m -51.159,74.779 -36.381,36.381 c 34.244,45.773 30.709,111.06 -10.868,152.639 -22.048,22.048 -51.416,34.192 -82.698,34.192 -25.615,0 -49.871,-8.261 -69.95,-23.315 l -36.372,36.372 c -3.263,3.263 -7.538,4.895 -11.812,4.895 -4.274,0 -8.55,-1.632 -11.812,-4.895 -6.526,-6.52 -6.526,-17.104 0,-23.625 l 36.381,-36.381 c -34.244,-45.773 -30.709,-111.06 10.869,-152.639 22.048,-22.048 51.416,-34.192 82.698,-34.192 25.615,0 49.871,8.261 69.95,23.315 l 36.372,-36.372 c 6.526,-6.526 17.099,-6.526 23.625,0 6.523,6.52 6.523,17.103 -0.002,23.625 z"
   id="path77"
   style="fill:#445d6e;fill-opacity:1" />
	</g>
</g>
<g
   id="g83">
</g>
<g
   id="g85">
</g>
<g
   id="g87">
</g>
<g
   id="g89">
</g>
<g
   id="g91">
</g>
<g
   id="g93">
</g>
<g
   id="g95">
</g>
<g
   id="g97">
</g>
<g
   id="g99">
</g>
<g
   id="g101">
</g>
<g
   id="g103">
</g>
<g
   id="g105">
</g>
<g
   id="g107">
</g>
<g
   id="g109">
</g>
<g
   id="g111">
</g>
</svg>
